<?xml version="1.0" ?><svg viewBox="0 0 512 512" xmlns="http://www.w3.org/2000/svg"><g id="Face_ID_confirmation"><path d="M178.1519,131.6494a2.6575,2.6575,0,0,1,2.6542-2.6543H197.752v-11H180.8061a13.67,13.67,0,0,0-13.6542,13.6543v16.8828h11Z"/><path d="M341.0352,131.6494a13.67,13.67,0,0,0-13.6543-13.6543H310.4346v11h16.9463a2.6573,2.6573,0,0,1,2.6543,2.6543v16.8828h11Z"/><path d="M167.1519,282.0874a13.67,13.67,0,0,0,13.6542,13.6543H197.752v-11H180.8061a2.6575,2.6575,0,0,1-2.6542-2.6543V265.2046h-11Z"/><path d="M341.0352,282.0874V265.2046h-11v16.8828a2.6573,2.6573,0,0,1-2.6543,2.6543H310.4346v11h16.9463A13.67,13.67,0,0,0,341.0352,282.0874Z"/><rect height="11" width="61.0635" x="349.8574" y="200.5234"/><rect height="11" width="61.0635" x="97.2656" y="200.5234"/><path d="M140.4311,91.8172a10,10,0,0,1,10-10H361.5688a10,10,0,0,1,10,10V189.546h15.24V64.27a32.6952,32.6952,0,0,0-32.6953-32.6949H157.8867A32.6952,32.6952,0,0,0,125.1914,64.27V189.546h15.24Z"/><path d="M371.5688,428.7551a10,10,0,0,1-10,10H150.4311a10,10,0,0,1-10-10V222.3564h-15.24v234.478a32.6951,32.6951,0,0,0,32.6953,32.695H354.1133a32.6951,32.6951,0,0,0,32.6953-32.695V222.3564h-15.24Zm-92.6879,40.5623H233.1186v-12h45.7623Z"/><path d="M242.0854,345.6646l-9.5957,8.77L249.6685,373.23a6.5,6.5,0,0,0,4.7553,2.1147h.0425a6.5012,6.5012,0,0,0,4.7407-2.0527L298.4492,330.27l-9.4805-8.8945-34.44,37.9024Z"/><path d="M211.7217,359.3691a43.9937,43.9937,0,1,0,87.9873,0h-12a31.9937,31.9937,0,1,1-31.9942-31.9931v-12A44.043,44.043,0,0,0,211.7217,359.3691Z"/><path d="M254.0933,144.4026A62.466,62.466,0,1,0,316.56,206.8685,62.4662,62.4662,0,0,0,254.0933,144.4026Zm-20.7041,45.0052a7.3436,7.3436,0,1,1-7.3438,7.3435A7.3433,7.3433,0,0,1,233.3892,189.4078Zm46.9379,29.8188c-.6816,6.9633-7.1328,20.1328-26.6767,20.1328s-25.9951-13.17-26.6753-20.1333v-1.167h11.9434c.1972,1.4731,1.8862,9.3,14.7319,9.3s14.5361-7.8277,14.7441-9.397h11.9326Zm-7.3437-15.1316a7.3436,7.3436,0,1,1,7.3437-7.3437A7.3439,7.3439,0,0,1,272.9834,204.095Z"/></g></svg>